<?xml version="1.0" standalone="no"?>
<!DOCTYPE svg PUBLIC "-//W3C//DTD SVG 20010904//EN"
 "http://www.w3.org/TR/2001/REC-SVG-20010904/DTD/svg10.dtd">
<svg version="1.0" xmlns="http://www.w3.org/2000/svg"
 width="512.000000pt" height="512.000000pt" viewBox="0 0 512.000000 512.000000"
 preserveAspectRatio="xMidYMid meet">
<metadata>
Created by potrace 1.16, written by Peter Selinger 2001-2019
</metadata>
<g transform="translate(0.000000,512.000000) scale(0.100000,-0.100000)"
fill="#000000" stroke="none">
<path d="M490 5113 c-33 -12 -55 -43 -110 -153 l-58 -116 -134 -19 c-119 -17
-136 -22 -160 -46 -49 -48 -40 -70 76 -188 l104 -106 -24 -133 c-25 -143 -23
-168 18 -196 37 -26 64 -19 190 46 l120 63 121 -63 c67 -34 135 -62 150 -62
36 0 77 41 77 76 0 15 -9 81 -20 147 l-21 120 101 102 c89 91 100 106 100 137
0 67 -21 79 -176 103 l-139 21 -60 117 c-33 64 -67 123 -75 131 -18 17 -59 27
-80 19z m104 -412 c8 -7 47 -18 86 -24 38 -6 70 -13 70 -17 0 -4 -18 -21 -40
-39 -62 -50 -75 -82 -61 -157 6 -34 11 -66 11 -72 0 -6 -30 5 -66 24 -36 19
-72 34 -80 34 -8 0 -45 -15 -83 -34 l-68 -35 8 42 c4 23 8 62 9 87 0 42 -4 50
-50 95 -27 27 -50 52 -50 56 0 4 26 10 57 14 86 11 107 25 143 102 l32 68 33
-66 c18 -36 40 -71 49 -78z"/>
<path d="M1804 5101 c-63 -29 -89 -72 -89 -151 0 -77 24 -119 85 -150 163 -83
326 121 207 257 -56 63 -127 79 -203 44z"/>
<path d="M4209 5091 c-26 -27 -29 -36 -29 -96 0 -79 10 -102 55 -121 40 -16
75 -7 99 28 19 27 22 155 3 179 -35 46 -88 50 -128 10z"/>
<path d="M3952 4837 c-28 -30 -30 -89 -3 -116 24 -24 78 -35 139 -28 83 9 121
89 67 142 -21 22 -33 25 -103 25 -69 0 -81 -3 -100 -23z"/>
<path d="M4380 4840 c-42 -42 -32 -111 20 -137 34 -17 125 -16 159 2 40 20 57
66 41 105 -17 42 -37 50 -124 50 -62 0 -80 -4 -96 -20z"/>
<path d="M4222 4683 c-37 -15 -57 -146 -30 -196 28 -53 92 -64 133 -22 22 21
25 33 25 100 0 67 -3 79 -25 100 -23 24 -69 32 -103 18z"/>
<path d="M1934 4587 c-34 -29 -34 -48 -4 -212 22 -116 25 -158 25 -390 0 -208
-4 -281 -18 -365 -41 -233 -84 -375 -198 -652 -49 -120 -89 -229 -89 -243 0
-61 95 -100 138 -57 32 32 188 414 238 585 81 272 109 495 101 800 -7 281 -40
491 -83 534 -30 30 -75 30 -110 0z"/>
<path d="M2562 4422 c-163 -58 -223 -257 -119 -394 71 -93 204 -125 312 -74
84 39 134 111 142 208 17 181 -163 321 -335 260z m146 -188 c48 -54 10 -134
-63 -134 -69 0 -108 73 -69 128 33 48 92 50 132 6z"/>
<path d="M3182 4157 c-21 -23 -22 -30 -22 -273 l0 -251 26 -24 26 -24 243 0
243 0 26 24 26 24 0 252 c0 250 0 252 -23 273 -23 21 -30 22 -273 22 -249 0
-251 0 -272 -23z m398 -272 l0 -125 -125 0 -125 0 0 125 0 125 125 0 125 0 0
-125z"/>
<path d="M4572 3915 c-39 -17 -52 -48 -52 -126 0 -54 3 -64 29 -90 38 -37 82
-39 116 -4 22 21 25 33 25 99 0 64 -3 79 -22 100 -30 32 -56 38 -96 21z"/>
<path d="M1118 3897 c-75 -21 -155 -76 -193 -132 -141 -205 -44 -572 276
-1050 215 -320 557 -695 857 -939 269 -218 601 -424 800 -496 41 -15 59 -26
50 -31 -7 -4 -139 -55 -293 -114 -209 -79 -287 -105 -309 -101 -40 8 -280 125
-378 185 -579 350 -989 942 -1118 1609 -22 115 -27 124 -70 142 -37 15 -81 0
-100 -35 -35 -65 64 -446 186 -718 232 -516 660 -969 1156 -1222 65 -34 107
-60 98 -63 -8 -3 -233 -87 -499 -188 l-484 -183 -61 55 c-197 177 -328 406
-379 664 -9 41 -25 197 -38 345 -13 170 -27 280 -35 297 -25 49 -103 52 -138
5 l-20 -28 22 -277 c32 -387 62 -525 158 -714 73 -146 193 -308 291 -392 l25
-22 -352 -133 c-193 -73 -354 -131 -356 -128 -2 2 25 123 61 268 36 145 63
274 60 287 -15 63 -105 86 -143 37 -13 -16 -48 -140 -101 -358 -45 -183 -84
-348 -87 -367 -7 -43 22 -85 64 -95 22 -4 318 104 1312 481 707 267 1451 549
1654 625 206 77 384 150 403 165 48 37 91 98 108 157 32 107 13 295 -45 451
-18 47 -28 60 -56 72 -37 15 -58 11 -91 -19 -30 -27 -29 -62 3 -162 36 -108
44 -264 17 -314 -24 -47 -58 -69 -122 -81 -177 -33 -508 107 -888 377 -508
360 -1043 980 -1244 1443 -49 113 -89 263 -89 333 0 141 77 211 224 205 70 -3
106 25 106 82 0 59 -33 82 -122 86 -41 2 -93 -2 -120 -9z"/>
<path d="M4249 3771 c-45 -46 -39 -74 29 -143 69 -68 97 -74 143 -29 43 43 37
83 -20 144 -57 63 -108 72 -152 28z"/>
<path d="M4823 3747 c-49 -48 -57 -60 -57 -92 0 -29 7 -43 28 -61 45 -40 81
-32 143 29 44 45 53 60 53 89 0 47 -26 77 -72 85 -35 5 -41 2 -95 -50z"/>
<path d="M2934 3478 c-41 -32 -834 -745 -861 -775 -59 -63 13 -171 90 -136 22
10 840 740 885 789 31 35 29 79 -7 115 -35 35 -68 37 -107 7z"/>
<path d="M3600 3069 c-498 -237 -915 -440 -927 -452 -31 -28 -31 -86 0 -115
47 -44 7 -60 827 330 173 83 461 220 640 305 179 86 348 166 376 179 66 31 88
56 88 101 0 41 -39 83 -77 83 -12 0 -429 -194 -927 -431z"/>
<path d="M4894 3476 c-39 -33 -39 -89 0 -122 23 -21 38 -24 101 -24 70 0 75 2
99 31 34 40 33 74 -3 110 -27 27 -35 29 -100 29 -59 0 -74 -4 -97 -24z"/>
<path d="M4809 3245 c-32 -17 -52 -66 -40 -98 5 -12 31 -43 59 -70 60 -55 98
-62 137 -22 38 37 34 85 -12 136 -37 40 -81 69 -105 69 -7 -1 -25 -7 -39 -15z"/>
<path d="M4570 3147 c-38 -19 -51 -54 -48 -130 4 -76 21 -102 74 -113 24 -4
37 0 62 21 31 26 32 29 32 105 0 75 -1 79 -31 104 -34 29 -52 32 -89 13z"/>
<path d="M3150 2304 c-103 -7 -305 -35 -470 -63 -182 -32 -200 -42 -200 -108
0 -40 37 -83 71 -83 12 0 87 11 168 25 340 57 533 71 756 55 255 -18 429 -52
671 -131 132 -43 157 -42 188 3 22 32 20 73 -6 102 -46 51 -454 159 -701 186
-109 11 -392 20 -477 14z"/>
<path d="M4613 2036 c-174 -57 -231 -285 -105 -420 62 -66 184 -94 273 -62 86
31 154 119 166 214 11 97 -50 207 -141 254 -50 26 -138 32 -193 14z m131 -178
c40 -35 43 -78 11 -116 -34 -41 -84 -44 -120 -7 -75 74 30 192 109 123z"/>
<path d="M3866 1419 c-54 -63 -20 -121 84 -145 219 -50 428 -163 569 -307 l43
-45 -53 -16 c-119 -34 -241 -133 -297 -240 -24 -45 -27 -62 -27 -146 0 -79 4
-103 23 -141 35 -71 84 -122 154 -160 58 -32 69 -34 153 -34 76 0 99 4 146 26
109 51 176 146 203 286 l13 68 28 -58 c49 -104 50 -236 2 -341 -15 -32 -27
-71 -27 -85 0 -33 31 -68 67 -77 84 -22 163 138 163 331 0 105 -18 183 -62
273 -33 66 -137 187 -182 212 -15 8 -52 50 -83 93 -179 256 -445 441 -744 516
-116 29 -141 28 -173 -10z m798 -699 c30 -37 40 -80 34 -163 -8 -134 -84 -214
-193 -205 -131 11 -198 147 -126 260 48 75 148 137 223 138 28 0 42 -7 62 -30z"/>
</g>
</svg>
